<?xml version="1.0" encoding="UTF-8"?>
<svg id="Layer_1" xmlns="http://www.w3.org/2000/svg" version="1.1" viewBox="0 0 236 51">
  <!-- Generator: Adobe Illustrator 29.2.1, SVG Export Plug-In . SVG Version: 2.1.0 Build 116)  -->
  <path d="M.3,49c3.1,0,5.1-1.7,5.1-6.3V3.7c-1.7-1.2-3.4-1.7-5.1-1.7v-.5h11.7l27.9,38.5V8.3c0-4.5-2-6.3-5.1-6.3v-.5h11.3v.5c-3.1,0-5.1,1.7-5.1,6.3v41.2h-1L9.8,8.3c-1.2-1.6-2.3-2.8-3.4-3.8v38.2c0,4.5,2,6.3,5.1,6.3v.5H.3v-.5ZM53.8,49c2.9,0,4.2-1.2,5.4-4L78.1,1.5l18.4,41.2c2.2,4.8,4,6.3,7.6,6.3v.5h-16v-.5c2.8,0,4.2-1.5,2.2-6l-5.5-12.3h-18.3l-6.9,15.7c-.7,1.6.6,2.5,3.5,2.5v.5h-9.3v-.5ZM66.9,29.7h17.4l-8.8-19.7-8.6,19.7ZM113.7,49c3.1,0,5.1-1.7,5.1-6.3V8.3c0-4.5-2-6.3-5.1-6.3v-.5h22.5c8.4,0,17,4.9,17,13.9s-5.5,13.2-12.4,14.7l8.5,12.2c3.7,5.3,5.8,6.7,9.5,6.7v.5h-16v-.5c2.8,0,3.5-1.5.1-6.3l-8.4-12h-9.9v12c0,4.5,2,6.3,5.1,6.3v.5h-16v-.5ZM133.8,29.7c8.4,0,13.7-4.7,13.7-14.4s-4.9-12.8-12.4-12.8h-10.4v27.2h9.2ZM192.4,50.5c-13.8,0-25.9-10.4-25.9-25S178.6.5,192.4.5s13.3,3.1,16.4,5.4v5.6h-.5c-2.9-8.5-11.4-10-15.9-10-11.7,0-20.2,9.9-20.2,24s8.4,24,20.2,24,14.1-2.6,16-11.3h.4c0,0,1.2,5.4,1.2,5.4-2.9,3.3-10.2,7-17.7,7ZM219.7,49c3.1,0,5.1-1.7,5.1-6.3V8.3c0-4.5-2-6.3-5.1-6.3v-.5h16v.5c-3.1,0-5.1,1.7-5.1,6.3v34.4c0,4.5,2,6.3,5.1,6.3v.5h-16v-.5Z"/>
</svg>